<svg width="64" height="64" fill="none" xmlns="http://www.w3.org/2000/svg"><path d="M32 0c-8.684 0-9.776.04-13.188.192-3.412.16-5.736.696-7.772 1.488a15.668 15.668 0 0 0-5.668 3.692A15.708 15.708 0 0 0 1.68 11.04C.888 13.072.348 15.4.192 18.8.04 22.22 0 23.308 0 32.004c0 8.688.04 9.776.192 13.188.16 3.408.696 5.732 1.488 7.768.82 2.104 1.912 3.888 3.692 5.668 1.776 1.78 3.56 2.876 5.664 3.692 2.04.792 4.36 1.332 7.768 1.488C22.22 63.96 23.308 64 32 64s9.776-.04 13.192-.192c3.404-.16 5.736-.696 7.772-1.488a15.664 15.664 0 0 0 5.664-3.692c1.78-1.78 2.872-3.564 3.692-5.668.788-2.036 1.328-4.36 1.488-7.768C63.96 41.78 64 40.692 64 32s-.04-9.78-.192-13.196c-.16-3.404-.7-5.732-1.488-7.764a15.704 15.704 0 0 0-3.692-5.668A15.644 15.644 0 0 0 52.96 1.68C50.92.888 48.592.348 45.188.192 41.772.04 40.688 0 31.992 0h.012H32Zm-2.868 5.768h2.872c8.544 0 9.556.028 12.928.184 3.12.14 4.816.664 5.944 1.1 1.492.58 2.56 1.276 3.68 2.396 1.12 1.12 1.812 2.184 2.392 3.68.44 1.124.96 2.82 1.1 5.94.156 3.372.188 4.384.188 12.924s-.032 9.556-.188 12.928c-.14 3.12-.664 4.812-1.1 5.94a9.88 9.88 0 0 1-2.396 3.676c-1.12 1.12-2.184 1.812-3.68 2.392-1.12.44-2.816.96-5.94 1.104-3.372.152-4.384.188-12.928.188s-9.56-.036-12.932-.188c-3.12-.144-4.812-.664-5.94-1.104a9.912 9.912 0 0 1-3.68-2.392 9.92 9.92 0 0 1-2.4-3.68c-.436-1.124-.96-2.82-1.1-5.94-.152-3.372-.184-4.384-.184-12.932 0-8.544.032-9.552.184-12.924.144-3.12.664-4.816 1.104-5.944.58-1.492 1.276-2.56 2.396-3.68 1.12-1.12 2.184-1.812 3.68-2.392 1.128-.44 2.82-.96 5.94-1.104 2.952-.136 4.096-.176 10.06-.18v.008Zm19.952 5.312a3.84 3.84 0 1 0 0 7.679 3.84 3.84 0 0 0 0-7.679Zm-17.08 4.488a16.435 16.435 0 1 0-.513 32.866 16.435 16.435 0 0 0 .513-32.866Zm0 5.764a10.668 10.668 0 1 1 0 21.335 10.668 10.668 0 0 1 0-21.335Z" fill="#fff"/></svg>