<svg width="150" height="150" fill="none" xmlns="http://www.w3.org/2000/svg"><circle cx="75" cy="75" r="74" fill="#002868" stroke="red" stroke-width="2"/><path d="M17.12 87.5h3.388v1.12h-1.12v8.26h3.052v-1.624h1.064V98H17.12v-1.12h.98v-8.26h-.98V87.5Zm7.64 9.38h1.12v-8.26h-1.12V87.5h3.527v1.12h-1.12v8.26h1.12V98H24.76v-1.12ZM35.365 98h-4.088v-1.12h1.4v-8.26h-2.072v1.624h-1.064V87.5h7.56v2.744h-1.064V88.62h-2.072v8.26h1.4V98Zm8.12 0H39.4v-1.12h1.4v-8.26h-2.072v1.624h-1.064V87.5h7.56v2.744h-1.064V88.62h-2.072v8.26h1.4V98Zm3.138-10.5h3.388v1.12h-1.12v8.26h3.052v-1.624h1.064V98h-6.384v-1.12h.98v-8.26h-.98V87.5Zm7.78 0h6.663v2.744h-1.12V88.62h-3.276v3.57h3.276v1.12h-3.276v3.57h3.276v-1.624h1.12V98h-6.664v-1.12h.98v-8.26h-.98V87.5Zm19.114 7.196h1.12v1.764L73.182 98h-3.528l-1.456-1.54v-7.42l1.456-1.54h3.528l1.456 1.54v1.764h-1.12v-1.19l-.882-.91h-2.422l-.728.742v6.608l.714.742h2.422l.896-.91v-1.19ZM78.048 98l-1.455-1.54v-7.42l1.456-1.54h3.948l1.456 1.54v7.42L81.997 98h-3.948Zm.547-1.204h2.842l.728-.742v-6.608l-.714-.742h-2.842l-.728.742v6.608l.714.742Zm6.263-8.176V87.5h2.968v1.12H86.79l2.03 7.84 2.03-7.84h-.602V87.5h3.024v1.12h-.616l2.03 7.84 2.03-7.84h-1.022V87.5h2.968v1.12h-.658L95.582 98H93.86l-2.1-8.106L89.66 98h-1.722l-2.436-9.38h-.644Zm15.209-1.12h5.6l1.456 1.54v2.52l-.756.798 1.036 1.078v3.024L105.947 98h-5.88v-1.12h.98v-8.26h-.98V87.5Zm2.268 5.516v3.78h3.052l.812-.826v-2.044l-.882-.91h-2.982Zm0-4.312v3.192h2.772l.812-.826v-1.54l-.798-.826h-2.786ZM111.094 98l-1.456-1.54v-7.42l1.456-1.54h3.948l1.456 1.54v7.42L115.042 98h-3.948Zm.546-1.204h2.842l.728-.742v-6.608l-.714-.742h-2.842l-.728.742v6.608l.714.742ZM123.783 98h-3.808v-1.12h1.26v-2.156l-2.632-6.104h-.7V87.5h2.968v1.12h-1.036l2.03 4.718 2.03-4.718h-1.022V87.5h2.968v1.12h-.714l-2.604 6.062v2.198h1.26V98Zm9.624-7.196h-1.162v-1.232l-.84-.868h-2.142l-.728.742v1.932l.686.7h2.912l1.414 1.484v2.898L132.091 98h-3.528l-1.456-1.54v-1.764h1.162v1.232l.854.868h2.422l.714-.742v-2.086l-.672-.686h-2.912l-1.428-1.498V89.04l1.456-1.54h3.248l1.456 1.54v1.764Z" fill="#fff"/><path fill="#002868" d="M21 96h1v2h-1zM50 96h1v2h-1zM57 87h1v11h-1zM71 87h1v11h-1zM104 87h1v11h-1zM130 87h1v11h-1z"/><path d="m90 65 1.123 3.455h3.632l-2.939 2.135 1.123 3.455L90 71.91l-2.939 2.135 1.123-3.455-2.94-2.135h3.633L90 65ZM105 65l1.123 3.455h3.632l-2.939 2.135 1.123 3.455L105 71.91l-2.939 2.135 1.123-3.455-2.939-2.135h3.632L105 65ZM75 65l1.123 3.455h3.632l-2.939 2.135 1.123 3.455L75 71.91l-2.939 2.135 1.123-3.455-2.94-2.135h3.633L75 65ZM60 65l1.123 3.455h3.632l-2.939 2.135 1.123 3.455L60 71.91l-2.939 2.135 1.123-3.455-2.94-2.135h3.633L60 65ZM45 65l1.123 3.455h3.632l-2.939 2.135 1.123 3.455L45 71.91l-2.939 2.135 1.123-3.455-2.94-2.135h3.633L45 65ZM52 50l1.123 3.455h3.632l-2.939 2.135 1.123 3.455L52 56.91l-2.939 2.135 1.123-3.455-2.94-2.135h3.633L52 50ZM60 35l1.123 3.455h3.632l-2.939 2.135 1.123 3.455L60 41.91l-2.939 2.135 1.123-3.455-2.94-2.135h3.633L60 35ZM75 35l1.123 3.455h3.632l-2.939 2.135 1.123 3.455L75 41.91l-2.939 2.135 1.123-3.455-2.94-2.135h3.633L75 35ZM75 20l1.123 3.455h3.632l-2.939 2.135 1.123 3.455L75 26.91l-2.939 2.135 1.123-3.455-2.94-2.135h3.633L75 20ZM90 35l1.123 3.455h3.632l-2.939 2.135 1.123 3.455L90 41.91l-2.939 2.135 1.123-3.455-2.94-2.135h3.633L90 35ZM67 50l1.123 3.455h3.632l-2.939 2.135 1.123 3.455L67 56.91l-2.939 2.135 1.123-3.455-2.94-2.135h3.633L67 50ZM82 50l1.123 3.455h3.632l-2.939 2.135 1.123 3.455L82 56.91l-2.939 2.135 1.123-3.455-2.94-2.135h3.633L82 50ZM97 50l1.123 3.455h3.632l-2.939 2.135 1.123 3.455L97 56.91l-2.939 2.135 1.123-3.455-2.94-2.135h3.633L97 50Z" fill="#fff"/><path d="m111 89 4 7.5M78 89l4 7.5" stroke="#fff"/></svg>