<svg width="64" height="53" fill="none" xmlns="http://www.w3.org/2000/svg"><path d="M20.104 53c24.152 0 37.364-20.012 37.364-37.336 0-.56 0-1.128-.024-1.688A26.742 26.742 0 0 0 64 7.168a26.632 26.632 0 0 1-7.556 2.072 13.204 13.204 0 0 0 5.788-7.268 26.131 26.131 0 0 1-8.348 3.172A13.144 13.144 0 0 0 31.5 17.12 37.3 37.3 0 0 1 4.432 3.404a13.156 13.156 0 0 0 4.072 17.528A13.292 13.292 0 0 1 2.56 19.3v.18a13.152 13.152 0 0 0 10.528 12.872c-1.127.31-2.291.465-3.46.46a12.924 12.924 0 0 1-2.456-.228 13.132 13.132 0 0 0 12.268 9.108A26.352 26.352 0 0 1 3.12 47.32 25.278 25.278 0 0 1 0 47.14 37.376 37.376 0 0 0 20.104 53Z" fill="#fff"/></svg>