<svg width="64" height="46" fill="none" xmlns="http://www.w3.org/2000/svg"><path d="M32.204.996h.356c3.288.012 19.948.132 24.44 1.34a8.04 8.04 0 0 1 5.66 5.68c.404 1.52.688 3.532.88 5.608l.04.416.088 1.04.032.416c.26 3.656.292 7.08.296 7.828v.3c-.004.776-.04 4.432-.328 8.24l-.032.42-.036.416c-.2 2.288-.496 4.56-.94 6.232a8.028 8.028 0 0 1-5.66 5.68c-4.64 1.248-22.276 1.336-24.72 1.34h-.568c-1.236 0-6.348-.024-11.708-.208l-.68-.024-.348-.016-.684-.028-.684-.028c-4.44-.196-8.668-.512-10.616-1.04a8.028 8.028 0 0 1-5.66-5.676c-.444-1.668-.74-3.944-.94-6.232l-.032-.42-.032-.416A125.6 125.6 0 0 1 0 23.72v-.492c.008-.86.04-3.832.256-7.112l.028-.412.012-.208.032-.416.088-1.04.04-.416c.192-2.076.476-4.092.88-5.608a8.028 8.028 0 0 1 5.66-5.68c1.948-.52 6.176-.84 10.616-1.04l.68-.028.688-.024.344-.012.684-.028c3.807-.122 7.615-.19 11.424-.204h.772V.996ZM25.6 13.836v19.272l16.628-9.632-16.628-9.64Z" fill="#fff"/></svg>